# xmcd
# 
# Track frame offsets:
#     150
#     23001
#     41559
#     61548
#     75785
#     93506
#     113723
#     137507
#     151010
#     169736
#     195018
#     210411
#     226421
# 
# Disc length: 3343
# 
# Revision: 7
# Processed by: cddbd v1.5.2PL0 Copyright (c) Steve Scherf et al.
# Submitted via: fre:ac v1.0.17
# 
DISCID=840d0d0d
DTITLE=Hubert-Félix Thiéfaine - Paul Personne - Amicalement blues
DYEAR=2007
DGENRE=Blues
TTITLE0=Avenue de l'amour
TTITLE1=Emeute émotionnelle
TTITLE2=Amant sous contrôle
TTITLE3=Strindberg 2007
TTITLE4=L'appel de la forêt
TTITLE5=Les douceurs de la vengeance
TTITLE6=Distance
TTITLE7=Rendez-vous au dernier carrefour
TTITLE8=Spécial ado sms blues
TTITLE9=Amicalement bleue
TTITLE10=Your terraplane is ready Mister Bob !
TTITLE11=Juste avant l'enfer
TTITLE12=Le vieux bluesman et la bimbo
EXTD=
EXTT0=
EXTT1=
EXTT2=
EXTT3=
EXTT4=
EXTT5=
EXTT6=
EXTT7=
EXTT8=
EXTT9=
EXTT10=
EXTT11=
EXTT12=
PLAYORDER=
